<svg width="80" height="80" viewBox="0 0 80 80" fill="none" xmlns="http://www.w3.org/2000/svg">
<g clip-path="url(#clip0_39_455)">
<path d="M61.3007 50.9491C61.2379 50.9215 61.7147 53.7052 63.1043 55.9335C63.9585 57.303 64.8055 58.8251 66.1817 60.5416C67.1387 61.7355 67.7757 62.3889 68.5502 63.1437C69.325 63.8988 71.4714 64.0915 72.4968 64.1065C72.7158 64.2035 74.7378 63.4152 74.7378 63.4152L77.0154 61.9114L79.6588 59.8725C79.9313 59.6092 80.0522 58.7311 79.9912 58.79L79.86 23.0302L79.5439 20.9789L77.9636 19.021L75.8563 17.6222L42.8798 0.745988L40.1407 0L37.4014 0.372995L32.6603 2.79731L17.6998 10.5362L3.16081 18.0887L1.36967 19.4872L0.316175 21.1655L0.105289 23.9628L0 57.063L0.632038 59.3939L2.42317 61.8182L5.37309 63.4033L10.7462 65.9205L36.3479 78.881L38.4549 79.7202L40.4566 80L42.353 79.7202L47.4103 77.4825L62.7922 69.2772L59.737 64.895L51.0978 69.3707L40.1407 74.7784L24.1264 66.5733L5.89984 57.5292L5.79456 22.6575L40.0355 5.31481L74.276 22.9373L74.2545 57.7694C74.297 57.7921 73.7181 58.7391 73.6034 58.6783C73.6278 58.7211 72.818 59.1746 72.7773 59.1024C72.7367 59.1926 71.6354 58.994 71.6598 58.9404C71.6139 58.9606 70.7734 58.0302 70.7906 58.0227L69.4856 55.8215L68.4821 53.7644C67.9444 52.3272 67.6208 51.0318 67.6208 51.0318L61.3007 50.9491Z" fill="#FFA913"/>
<path d="M24.4595 51.521C22.5233 51.521 20.727 51.2474 19.0708 50.7003C17.4145 50.1532 15.9857 49.3739 14.7843 48.3623C13.5829 47.3507 12.644 46.1584 11.9675 44.7855C11.291 43.4126 10.9527 41.9004 10.9527 40.2488C10.9527 38.5972 11.291 37.0849 11.9675 35.712C12.644 34.3391 13.5887 33.1469 14.8018 32.1353C16.0148 31.1236 17.4553 30.3443 19.1232 29.7972C20.7912 29.2501 22.6166 28.9766 24.5994 28.9766C26.9089 28.9766 28.9734 29.3172 30.793 29.9985C32.6125 30.6798 34.1172 31.6604 35.3069 32.9404L30.8979 36.4707C30.0581 35.6656 29.1542 35.0617 28.1861 34.6591C27.218 34.2565 26.1391 34.0552 24.9494 34.0552C23.8996 34.0552 22.9432 34.1998 22.08 34.4888C21.2169 34.7778 20.4821 35.1959 19.8756 35.743C19.269 36.2901 18.7967 36.9404 18.4584 37.6939C18.1202 38.4475 17.951 39.2991 17.951 40.2488C17.951 41.1571 18.1202 41.9933 18.4584 42.7571C18.7967 43.521 19.269 44.1765 19.8756 44.7236C20.4821 45.2707 21.2111 45.6939 22.0625 45.9932C22.914 46.2926 23.853 46.4423 24.8794 46.4423C25.9058 46.4423 26.9089 46.2926 27.8887 45.9932C28.8684 45.6939 29.8599 45.1829 30.863 44.4603L34.747 48.7648C33.3474 49.6526 31.7261 50.3339 29.8832 50.8087C28.0403 51.2835 26.2324 51.521 24.4595 51.521ZM28.6235 47.9597V39.7842H34.747V48.7648L28.6235 47.9597Z" fill="#FFA913"/>
<path d="M39.151 51.0875V29.4102H44.8546L55.0022 44.1507H51.9929L61.8606 29.4102H67.5642L67.6342 51.0875H61.2657L61.1957 37.9882H62.2805L54.8973 48.9507H51.818L44.2248 37.9882H45.5545V51.0875H39.151Z" fill="#FFA913"/>
</g>
<defs>
<clipPath id="clip0_39_455">
<rect width="80" height="80" fill="white"/>
</clipPath>
</defs>
</svg>
